<svg xmlns="http://www.w3.org/2000/svg" width="234" height="80" fill="none"><g clip-path="url(#a)"><path fill="#E0112B" d="M.064.229h79.223v79.706H.064V.229z"/><path fill="#fff" d="M14.96 15.51h5.226V59.2h7.724v5.42H14.96V15.51zm36.383 0H64.52v5.355h-7.984v15.772H64v5.714h-7.464V59.2h7.984v5.42H51.343V15.51zM32.454 64.62v-5.387h1.623c2.142 0 5.777-1.502 6.329-4.898.519-3.298.13-5.682-4.09-12.931l-.032-.098c-2.921-4.8-5.712-9.012-4.674-15.608a11.548 11.548 0 013.9-7.398 11.414 11.414 0 017.849-2.79h1.623v5.355h-1.623c-2.142 0-5.874 1.502-6.426 4.898-.52 3.265-.162 5.42 3.927 12.572l.13.163c3.05 4.93 5.777 9.306 4.738 15.87a11.484 11.484 0 01-3.819 7.443 11.35 11.35 0 01-7.832 2.842h-1.623"/><path fill="#333" d="M94.379 55.053h2.499c1.947 0 3.57.653 3.57 2.84 0 2.123-1.655 2.907-3.375 2.907h-1.331v3.82h-1.363v-9.567zm1.363 4.539h1.33c.844 0 1.948-.425 1.948-1.698 0-1.208-1.298-1.633-2.142-1.633h-1.136v3.33zm10.386-4.735c2.888 0 4.543 2.123 4.543 4.963 0 2.94-1.622 4.964-4.543 4.964-2.921 0-4.577-2.057-4.577-4.964 0-2.84 1.688-4.93 4.544-4.93l.033-.033zm0 8.718c2.174 0 3.115-1.828 3.115-3.755 0-1.959-1.038-3.755-3.115-3.755-2.11 0-3.149 1.829-3.149 3.755 0 1.927.974 3.755 3.149 3.755zm6.231-8.522h1.363v8.36h3.96v1.207h-5.323v-9.567zm6.815 0h1.364v9.567h-1.364v-9.567zm5.68 1.208h-2.953v-1.208h7.27v1.208h-2.954v8.36h-1.363v-8.36zm5.68-1.208h1.363v9.567h-1.363v-9.567zm10.385 1.567c-.616-.359-1.298-.555-1.947-.555-2.239 0-3.667 1.633-3.667 3.755 0 2.254 1.622 3.755 3.57 3.755.681 0 1.622-.195 2.077-.457l.065 1.306c-.714.327-1.623.327-2.142.327-3.019 0-5.031-1.927-5.031-4.963 0-2.939 2.142-4.898 5.031-4.898.746 0 1.46.098 2.142.392l-.098 1.306v.032zm4.771-1.567h1.428l4.025 9.567h-1.526l-.973-2.416h-4.674l-.974 2.416h-1.428l4.09-9.567h.032zm.649 1.274l-1.882 4.734h3.797l-1.915-4.734zm6.167-1.274h1.363v8.36h3.959v1.207h-5.322v-9.567zm15.189 1.437a4.201 4.201 0 00-1.785-.425c-.747 0-1.656.294-1.656 1.306 0 1.829 4.09 1.404 4.09 4.572 0 2.024-1.558 2.84-3.473 2.84-.649 0-1.298-.195-1.947-.391l.13-1.306c.454.196 1.298.49 1.979.49.779 0 1.883-.458 1.883-1.568 0-2.155-4.09-1.567-4.09-4.539 0-1.697 1.299-2.612 3.051-2.612.617 0 1.363.13 2.012.36l-.194 1.273zm9.087.13c-.617-.359-1.298-.555-1.947-.555-2.24 0-3.668 1.633-3.668 3.755 0 2.254 1.623 3.755 3.57 3.755.682 0 1.623-.195 2.077-.457l.065 1.306c-.714.327-1.622.327-2.142.327-3.018 0-5.03-1.927-5.03-4.963 0-2.939 2.142-4.898 5.03-4.898.747 0 1.461.098 2.142.392l-.097 1.306v.032zm1.753-1.567h1.363v9.567h-1.363v-9.567zm3.862 0h5.322v1.208h-3.959v2.776h3.602v1.208h-3.602v3.167h3.959v1.208h-5.322v-9.567zm7.497 0h1.85l4.186 7.706h.033v-7.706h1.363v9.567h-1.753l-4.316-7.869v7.87h-1.363v-9.568zm16.422 1.567c-.617-.359-1.298-.555-1.947-.555-2.207 0-3.668 1.633-3.668 3.755 0 2.254 1.623 3.755 3.57 3.755.682 0 1.623-.195 2.077-.457l.098 1.306c-.747.327-1.623.327-2.175.327-3.018 0-5.03-1.927-5.03-4.963 0-2.939 2.142-4.898 5.03-4.898.747 0 1.461.098 2.142.392l-.097 1.306v.032zm1.817-1.567h5.323v1.208h-3.959v2.776h3.602v1.208h-3.602v3.167h3.959v1.208h-5.323v-9.567z"/><path fill="#000" fill-opacity=".2" d="M94.379 55.053h2.499c1.947 0 3.57.653 3.57 2.84 0 2.123-1.655 2.907-3.375 2.907h-1.331v3.82h-1.363v-9.567zm1.363 4.539h1.33c.844 0 1.948-.425 1.948-1.698 0-1.208-1.298-1.633-2.142-1.633h-1.136v3.33zm10.386-4.735c2.888 0 4.543 2.123 4.543 4.963 0 2.94-1.622 4.964-4.543 4.964-2.921 0-4.577-2.057-4.577-4.964 0-2.84 1.688-4.93 4.544-4.93l.033-.033zm0 8.718c2.174 0 3.115-1.828 3.115-3.755 0-1.959-1.038-3.755-3.115-3.755-2.11 0-3.149 1.829-3.149 3.755 0 1.927.974 3.755 3.149 3.755zm6.231-8.522h1.363v8.36h3.96v1.207h-5.323v-9.567zm6.815 0h1.364v9.567h-1.364v-9.567zm5.68 1.208h-2.953v-1.208h7.27v1.208h-2.954v8.36h-1.363v-8.36zm5.68-1.208h1.363v9.567h-1.363v-9.567zm10.385 1.567c-.616-.359-1.298-.555-1.947-.555-2.239 0-3.667 1.633-3.667 3.755 0 2.254 1.622 3.755 3.57 3.755.681 0 1.622-.195 2.077-.457l.065 1.306c-.714.327-1.623.327-2.142.327-3.019 0-5.031-1.927-5.031-4.963 0-2.939 2.142-4.898 5.031-4.898.746 0 1.46.098 2.142.392l-.098 1.306v.032zm4.771-1.567h1.428l4.025 9.567h-1.526l-.973-2.416h-4.674l-.974 2.416h-1.428l4.09-9.567h.032zm.649 1.274l-1.882 4.734h3.797l-1.915-4.734zm6.167-1.274h1.363v8.36h3.959v1.207h-5.322v-9.567zm15.189 1.437a4.201 4.201 0 00-1.785-.425c-.747 0-1.656.294-1.656 1.306 0 1.829 4.09 1.404 4.09 4.572 0 2.024-1.558 2.84-3.473 2.84-.649 0-1.298-.195-1.947-.391l.13-1.306c.454.196 1.298.49 1.979.49.779 0 1.883-.458 1.883-1.568 0-2.155-4.09-1.567-4.09-4.539 0-1.697 1.299-2.612 3.051-2.612.617 0 1.363.13 2.012.36l-.194 1.273zm9.087.13c-.617-.359-1.298-.555-1.947-.555-2.24 0-3.668 1.633-3.668 3.755 0 2.254 1.623 3.755 3.57 3.755.682 0 1.623-.195 2.077-.457l.065 1.306c-.714.327-1.622.327-2.142.327-3.018 0-5.03-1.927-5.03-4.963 0-2.939 2.142-4.898 5.03-4.898.747 0 1.461.098 2.142.392l-.097 1.306v.032zm1.753-1.567h1.363v9.567h-1.363v-9.567zm3.862 0h5.322v1.208h-3.959v2.776h3.602v1.208h-3.602v3.167h3.959v1.208h-5.322v-9.567zm7.497 0h1.85l4.186 7.706h.033v-7.706h1.363v9.567h-1.753l-4.316-7.869v7.87h-1.363v-9.568zm16.422 1.567c-.617-.359-1.298-.555-1.947-.555-2.207 0-3.668 1.633-3.668 3.755 0 2.254 1.623 3.755 3.57 3.755.682 0 1.623-.195 2.077-.457l.098 1.306c-.747.327-1.623.327-2.175.327-3.018 0-5.03-1.927-5.03-4.963 0-2.939 2.142-4.898 5.03-4.898.747 0 1.461.098 2.142.392l-.097 1.306v.032zm1.817-1.567h5.323v1.208h-3.959v2.776h3.602v1.208h-3.602v3.167h3.959v1.208h-5.323v-9.567z"/><path fill="#E0112B" d="M223.322 54.596h10.516v10.58h-10.516v-10.58z"/><path fill="#333" d="M96.683 18.71h-2.24v-.914h5.55v.914h-2.272v6.367h-1.038V18.71zm4.446-.914h1.039v3.037h3.472v-3.037h1.039v7.282h-1.039V21.78h-3.472v3.297h-1.039v-7.281zm7.595 0h4.056v.914h-3.018v2.123h2.726v.947h-2.726v2.383h3.018v.915h-4.056v-7.282zm10.482-2.286h1.364v8.36h3.992v1.207h-5.356V15.51zm11.035-.163c2.889 0 4.544 2.122 4.544 4.963 0 2.906-1.623 4.93-4.544 4.93-2.921 0-4.641-2.024-4.641-4.93 0-2.84 1.72-4.963 4.609-4.963h.032zm0 8.686c2.175 0 3.116-1.829 3.116-3.723 0-1.959-1.039-3.755-3.116-3.755-2.109 0-3.148 1.796-3.148 3.755 0 1.894.941 3.723 3.148 3.723zm6.588-8.523h1.85l4.187 7.706h.033V15.51h1.363v9.568h-1.753l-4.284-7.87h-.032v7.87h-1.364V15.51zm9.867 0h2.791c2.823 0 5.095 1.763 5.095 4.702 0 3.233-1.947 4.898-5.095 4.898h-2.791v-9.633.033zm1.363 8.36h1.428c2.337 0 3.635-1.11 3.635-3.593 0-2.253-1.493-3.559-3.473-3.559h-1.623v7.184l.033-.033zm12.755-8.523c2.888 0 4.543 2.122 4.543 4.963 0 2.906-1.622 4.93-4.543 4.93-2.921 0-4.576-2.024-4.576-4.93 0-2.84 1.687-4.963 4.543-4.963h.033zm0 8.686c2.174 0 3.115-1.829 3.115-3.723 0-1.959-1.038-3.755-3.115-3.755-2.11 0-3.148 1.796-3.148 3.755 0 1.894.941 3.723 3.148 3.723zm6.588-8.523h1.85l4.187 7.706h.032V15.51h1.363v9.568h-1.752l-4.284-7.87h-.033v7.87h-1.363V15.51zm18.694 1.47a4.198 4.198 0 00-1.785-.425c-.746 0-1.655.261-1.655 1.306 0 1.796 4.089 1.372 4.089 4.539 0 2.057-1.558 2.84-3.473 2.84-.649 0-1.298-.162-1.947-.391l.13-1.273c.454.195 1.298.457 1.947.457.812 0 1.883-.425 1.883-1.535 0-2.155-4.09-1.567-4.09-4.572 0-1.665 1.363-2.58 3.051-2.58.649 0 1.396.099 2.045.328l-.195 1.306zm9.152.098a4.04 4.04 0 00-1.947-.523c-2.207 0-3.667 1.6-3.667 3.755 0 2.253 1.622 3.723 3.57 3.723.714 0 1.622-.164 2.109-.457l.065 1.306c-.714.326-1.623.359-2.174.359-2.986 0-4.998-1.96-4.998-4.963 0-2.94 2.109-4.898 5.03-4.898.747 0 1.461.065 2.142.391l-.13 1.306zm1.948-1.568h1.363v4.016h4.543V15.51h1.364v9.568h-1.364v-4.343h-4.543v4.343h-1.363V15.51zm13.955-.163c2.889 0 4.544 2.122 4.544 4.963 0 2.906-1.623 4.93-4.544 4.93-2.921 0-4.576-2.024-4.576-4.93 0-2.84 1.688-4.963 4.544-4.963h.032zm0 8.686c2.175 0 3.116-1.829 3.116-3.723 0-1.959-1.039-3.755-3.116-3.755-2.109 0-3.148 1.796-3.148 3.755 0 1.894.974 3.723 3.148 3.723zm10.678-8.686c2.921 0 4.609 2.122 4.609 4.963 0 2.906-1.688 4.93-4.609 4.93-2.921 0-4.544-2.024-4.544-4.93 0-2.84 1.655-4.963 4.544-4.963zm0 8.686c2.207 0 3.148-1.829 3.148-3.723 0-1.959-1.038-3.755-3.148-3.755-2.077 0-3.116 1.796-3.116 3.755 0 1.894.941 3.723 3.116 3.723zm6.621-8.523h1.363v8.36h3.959v1.207h-5.322V15.51z"/><path fill="#000" fill-opacity=".2" d="M96.683 18.71h-2.24v-.914h5.55v.914h-2.272v6.367h-1.038V18.71zm4.446-.914h1.039v3.037h3.472v-3.037h1.039v7.282h-1.039V21.78h-3.472v3.297h-1.039v-7.281zm7.595 0h4.056v.914h-3.018v2.123h2.726v.947h-2.726v2.383h3.018v.915h-4.056v-7.282zm10.482-2.286h1.364v8.36h3.992v1.207h-5.356V15.51zm11.035-.163c2.889 0 4.544 2.122 4.544 4.963 0 2.906-1.623 4.93-4.544 4.93-2.921 0-4.641-2.024-4.641-4.93 0-2.84 1.72-4.963 4.609-4.963h.032zm0 8.686c2.175 0 3.116-1.829 3.116-3.723 0-1.959-1.039-3.755-3.116-3.755-2.109 0-3.148 1.796-3.148 3.755 0 1.894.941 3.723 3.148 3.723zm6.588-8.523h1.85l4.187 7.706h.033V15.51h1.363v9.568h-1.753l-4.284-7.87h-.032v7.87h-1.364V15.51zm9.867 0h2.791c2.823 0 5.095 1.763 5.095 4.702 0 3.233-1.947 4.898-5.095 4.898h-2.791v-9.633.033zm1.363 8.36h1.428c2.337 0 3.635-1.11 3.635-3.593 0-2.253-1.493-3.559-3.473-3.559h-1.623v7.184l.033-.033zm12.755-8.523c2.888 0 4.543 2.122 4.543 4.963 0 2.906-1.622 4.93-4.543 4.93-2.921 0-4.576-2.024-4.576-4.93 0-2.84 1.687-4.963 4.543-4.963h.033zm0 8.686c2.174 0 3.115-1.829 3.115-3.723 0-1.959-1.038-3.755-3.115-3.755-2.11 0-3.148 1.796-3.148 3.755 0 1.894.941 3.723 3.148 3.723zm6.588-8.523h1.85l4.187 7.706h.032V15.51h1.363v9.568h-1.752l-4.284-7.87h-.033v7.87h-1.363V15.51zm18.694 1.47a4.198 4.198 0 00-1.785-.425c-.746 0-1.655.261-1.655 1.306 0 1.796 4.089 1.372 4.089 4.539 0 2.057-1.558 2.84-3.473 2.84-.649 0-1.298-.162-1.947-.391l.13-1.273c.454.195 1.298.457 1.947.457.812 0 1.883-.425 1.883-1.535 0-2.155-4.09-1.567-4.09-4.572 0-1.665 1.363-2.58 3.051-2.58.649 0 1.396.099 2.045.328l-.195 1.306zm9.152.098a4.04 4.04 0 00-1.947-.523c-2.207 0-3.667 1.6-3.667 3.755 0 2.253 1.622 3.723 3.57 3.723.714 0 1.622-.164 2.109-.457l.065 1.306c-.714.326-1.623.359-2.174.359-2.986 0-4.998-1.96-4.998-4.963 0-2.94 2.109-4.898 5.03-4.898.747 0 1.461.065 2.142.391l-.13 1.306zm1.948-1.568h1.363v4.016h4.543V15.51h1.364v9.568h-1.364v-4.343h-4.543v4.343h-1.363V15.51zm13.955-.163c2.889 0 4.544 2.122 4.544 4.963 0 2.906-1.623 4.93-4.544 4.93-2.921 0-4.576-2.024-4.576-4.93 0-2.84 1.688-4.963 4.544-4.963h.032zm0 8.686c2.175 0 3.116-1.829 3.116-3.723 0-1.959-1.039-3.755-3.116-3.755-2.109 0-3.148 1.796-3.148 3.755 0 1.894.974 3.723 3.148 3.723zm10.678-8.686c2.921 0 4.609 2.122 4.609 4.963 0 2.906-1.688 4.93-4.609 4.93-2.921 0-4.544-2.024-4.544-4.93 0-2.84 1.655-4.963 4.544-4.963zm0 8.686c2.207 0 3.148-1.829 3.148-3.723 0-1.959-1.038-3.755-3.148-3.755-2.077 0-3.116 1.796-3.116 3.755 0 1.894.941 3.723 3.116 3.723zm6.621-8.523h1.363v8.36h3.959v1.207h-5.322V15.51z"/><path fill="#333" d="M97.884 37.551c2.175 0 3.473 1.6 3.473 3.755 0 2.22-1.298 3.788-3.473 3.788-2.24 0-3.505-1.568-3.505-3.788 0-2.155 1.298-3.788 3.505-3.788v.033zm0 6.596c1.655 0 2.369-1.404 2.369-2.84 0-1.47-.779-2.874-2.369-2.842-1.623 0-2.402 1.372-2.402 2.841 0 1.437.714 2.84 2.402 2.84zm5.842-6.498h3.862v.914h-2.824v2.155h2.694v.915h-2.694v3.33h-1.038V37.65zm12.463-2.286h5.322v1.208h-3.959v2.809h3.602v1.208h-3.602v3.167h3.959v1.208h-5.322v-9.6zm15.351 1.6a3.743 3.743 0 00-1.948-.555c-2.206 0-3.667 1.633-3.667 3.755 0 2.253 1.623 3.755 3.57 3.755.714 0 1.623-.196 2.077-.49l.098 1.34c-.714.326-1.623.326-2.175.326-3.018 0-4.998-1.927-4.998-4.963 0-2.94 2.11-4.898 5.031-4.898.714 0 1.428.098 2.109.391l-.097 1.307v.032zm7.107-1.763c2.921 0 4.577 2.122 4.577 4.963 0 2.939-1.656 4.964-4.544 4.964-2.921 0-4.609-2.058-4.609-4.964 0-2.84 1.688-4.963 4.576-4.963zm0 8.718c2.207 0 3.149-1.86 3.149-3.755 0-1.959-1.039-3.755-3.149-3.755-2.077 0-3.115 1.796-3.115 3.755 0 1.894.941 3.755 3.115 3.755zm7.498-8.555h1.849l4.22 7.739h.032v-7.739h1.363v9.6h-1.752l-4.317-7.87h-.032v7.87h-1.363v-9.6zm15.221-.163c2.921 0 4.576 2.122 4.576 4.963 0 2.939-1.655 4.964-4.544 4.964-2.921 0-4.608-2.058-4.608-4.964 0-2.84 1.687-4.963 4.576-4.963zm0 8.718c2.207 0 3.148-1.86 3.148-3.755 0-1.959-1.039-3.755-3.148-3.755-2.11 0-3.148 1.796-3.148 3.755 0 1.894.973 3.755 3.148 3.755zm7.529-8.555h2.24l2.986 7.968 2.921-7.968h2.271v9.6h-1.363V36.67h-.032l-3.148 8.294h-1.331l-3.148-8.294h-.032v8.294h-1.364v-9.6zm14.118 0h1.363v9.6h-1.363v-9.6zm11.36 1.6c-.617-.359-1.299-.555-1.948-.555-2.207 0-3.667 1.633-3.667 3.755 0 2.253 1.623 3.755 3.57 3.755.681 0 1.623-.196 2.077-.49l.097 1.34c-.746.326-1.622.326-2.174.326-3.018 0-5.031-1.927-5.031-4.963 0-2.94 2.142-4.898 5.031-4.898.746 0 1.46.098 2.142.391l-.097 1.307v.032zm7.334-.13a4.198 4.198 0 00-1.785-.425c-.746 0-1.655.294-1.655 1.306 0 1.829 4.089 1.404 4.089 4.572 0 2.024-1.557 2.84-3.472 2.84-.649 0-1.298-.195-1.948-.391l.13-1.306c.455.195 1.298.49 1.948.49.811 0 1.882-.458 1.882-1.568 0-2.155-4.089-1.567-4.089-4.539 0-1.698 1.363-2.612 3.083-2.612.617 0 1.363.13 2.012.326l-.195 1.307zm11.1.816h1.103l3.051 7.314h-1.136l-.714-1.861h-3.57l-.746 1.861h-1.071l3.083-7.314zm.519.98l-1.46 3.624h2.921l-1.461-3.592v-.032zm5.453-.98h1.395l3.213 5.877V37.65h1.039v7.314h-1.331l-3.278-6.008v6.008h-1.038V37.65zm8.178 0h2.142c2.142 0 3.895 1.339 3.895 3.592 0 2.449-1.493 3.722-3.895 3.722h-2.142V37.65zm1.039 6.4h1.103c1.785 0 2.759-.882 2.759-2.776 0-1.698-1.136-2.71-2.629-2.71h-1.233v5.519-.033z"/><path fill="#000" fill-opacity=".2" d="M97.884 37.551c2.175 0 3.473 1.6 3.473 3.755 0 2.22-1.298 3.788-3.473 3.788-2.24 0-3.505-1.568-3.505-3.788 0-2.155 1.298-3.788 3.505-3.788v.033zm0 6.596c1.655 0 2.369-1.404 2.369-2.84 0-1.47-.779-2.874-2.369-2.842-1.623 0-2.402 1.372-2.402 2.841 0 1.437.714 2.84 2.402 2.84zm5.842-6.498h3.862v.914h-2.824v2.155h2.694v.915h-2.694v3.33h-1.038V37.65zm12.463-2.286h5.322v1.208h-3.959v2.809h3.602v1.208h-3.602v3.167h3.959v1.208h-5.322v-9.6zm15.351 1.6a3.743 3.743 0 00-1.948-.555c-2.206 0-3.667 1.633-3.667 3.755 0 2.253 1.623 3.755 3.57 3.755.714 0 1.623-.196 2.077-.49l.098 1.34c-.714.326-1.623.326-2.175.326-3.018 0-4.998-1.927-4.998-4.963 0-2.94 2.11-4.898 5.031-4.898.714 0 1.428.098 2.109.391l-.097 1.307v.032zm7.107-1.763c2.921 0 4.577 2.122 4.577 4.963 0 2.939-1.656 4.964-4.544 4.964-2.921 0-4.609-2.058-4.609-4.964 0-2.84 1.688-4.963 4.576-4.963zm0 8.718c2.207 0 3.149-1.86 3.149-3.755 0-1.959-1.039-3.755-3.149-3.755-2.077 0-3.115 1.796-3.115 3.755 0 1.894.941 3.755 3.115 3.755zm7.498-8.555h1.849l4.22 7.739h.032v-7.739h1.363v9.6h-1.752l-4.317-7.87h-.032v7.87h-1.363v-9.6zm15.221-.163c2.921 0 4.576 2.122 4.576 4.963 0 2.939-1.655 4.964-4.544 4.964-2.921 0-4.608-2.058-4.608-4.964 0-2.84 1.687-4.963 4.576-4.963zm0 8.718c2.207 0 3.148-1.86 3.148-3.755 0-1.959-1.039-3.755-3.148-3.755-2.11 0-3.148 1.796-3.148 3.755 0 1.894.973 3.755 3.148 3.755zm7.529-8.555h2.24l2.986 7.968 2.921-7.968h2.271v9.6h-1.363V36.67h-.032l-3.148 8.294h-1.331l-3.148-8.294h-.032v8.294h-1.364v-9.6zm14.118 0h1.363v9.6h-1.363v-9.6zm11.36 1.6c-.617-.359-1.299-.555-1.948-.555-2.207 0-3.667 1.633-3.667 3.755 0 2.253 1.623 3.755 3.57 3.755.681 0 1.623-.196 2.077-.49l.097 1.34c-.746.326-1.622.326-2.174.326-3.018 0-5.031-1.927-5.031-4.963 0-2.94 2.142-4.898 5.031-4.898.746 0 1.46.098 2.142.391l-.097 1.307v.032zm7.334-.13a4.198 4.198 0 00-1.785-.425c-.746 0-1.655.294-1.655 1.306 0 1.829 4.089 1.404 4.089 4.572 0 2.024-1.557 2.84-3.472 2.84-.649 0-1.298-.195-1.948-.391l.13-1.306c.455.195 1.298.49 1.948.49.811 0 1.882-.458 1.882-1.568 0-2.155-4.089-1.567-4.089-4.539 0-1.698 1.363-2.612 3.083-2.612.617 0 1.363.13 2.012.326l-.195 1.307zm11.1.816h1.103l3.051 7.314h-1.136l-.714-1.861h-3.57l-.746 1.861h-1.071l3.083-7.314zm.519.98l-1.46 3.624h2.921l-1.461-3.592v-.032zm5.453-.98h1.395l3.213 5.877V37.65h1.039v7.314h-1.331l-3.278-6.008v6.008h-1.038V37.65zm8.178 0h2.142c2.142 0 3.895 1.339 3.895 3.592 0 2.449-1.493 3.722-3.895 3.722h-2.142V37.65zm1.039 6.4h1.103c1.785 0 2.759-.882 2.759-2.776 0-1.698-1.136-2.71-2.629-2.71h-1.233v5.519-.033z"/></g><defs><clipPath id="a"><path fill="#fff" d="M0 0h234v80H0z"/></clipPath></defs></svg>