<?xml version="1.0" encoding="UTF-8"?>
<svg xmlns="http://www.w3.org/2000/svg" id="a" viewBox="0 0 1898.47 340.59">
  <path d="M167.24,0l83.62,83.62v167.24h-83.62V83.62h-83.62v250.86H0V0h167.24ZM418.11,83.62L334.49,0h-83.62v83.62h83.62v250.86l83.62-83.62V83.62ZM418.11,250.86v83.62h83.62v-83.62h-83.62ZM611.66,186.82v-92.32h-30.67v-10.91h74.62v10.91h-30.67v92.32h-13.27ZM685.4,188.59c-7.08,0-13.35-1.6-18.8-4.79-5.46-3.19-9.73-7.64-12.83-13.35-3.1-5.7-4.65-12.39-4.65-20.06s1.52-14.53,4.57-20.28c3.05-5.75,7.32-10.22,12.83-13.42,5.5-3.19,11.85-4.79,19.02-4.79s13.35,1.6,18.51,4.79c5.16,3.2,9.14,7.4,11.94,12.61,2.8,5.21,4.2,10.91,4.2,17.11v3.17c0,1.13-.05,2.34-.15,3.61h-61.05v-9.73h48.08c-.29-6.39-2.48-11.4-6.56-15.04-4.08-3.64-9.17-5.46-15.26-5.46-4.13,0-7.96.91-11.5,2.73-3.54,1.82-6.37,4.52-8.48,8.11-2.12,3.59-3.17,8.04-3.17,13.35v3.98c0,5.8,1.08,10.67,3.24,14.6,2.16,3.93,5.01,6.88,8.55,8.85,3.54,1.97,7.32,2.95,11.36,2.95,4.92,0,9.04-1.13,12.39-3.39,3.34-2.26,5.8-5.36,7.37-9.29h13.12c-1.28,4.42-3.39,8.46-6.34,12.09-2.95,3.64-6.66,6.49-11.13,8.55-4.47,2.06-9.56,3.1-15.26,3.1ZM767.98,188.59c-6.98,0-13.25-1.62-18.8-4.87-5.56-3.24-9.95-7.74-13.2-13.49-3.24-5.75-4.87-12.41-4.87-19.98s1.62-14.35,4.87-20.06c3.24-5.7,7.64-10.18,13.2-13.42,5.55-3.24,11.82-4.87,18.8-4.87,8.85,0,16.25,2.29,22.19,6.86,5.95,4.57,9.76,10.69,11.43,18.36h-13.71c-.98-4.33-3.32-7.72-7.01-10.18-3.69-2.46-7.99-3.69-12.9-3.69-4.03,0-7.84,1.03-11.43,3.1-3.59,2.06-6.47,5.09-8.63,9.07-2.16,3.98-3.24,8.92-3.24,14.82s1.08,10.72,3.24,14.75c2.16,4.03,5.04,7.08,8.63,9.14,3.59,2.06,7.4,3.1,11.43,3.1,4.92,0,9.22-1.2,12.9-3.61,3.69-2.41,6.02-5.83,7.01-10.25h13.71c-1.57,7.47-5.36,13.54-11.36,18.21-6,4.67-13.42,7-22.27,7ZM815.76,186.82v-106.18h13.27v45.42c2.46-4.42,5.92-7.89,10.4-10.4,4.47-2.51,9.36-3.76,14.67-3.76,8.55,0,15.36,2.65,20.42,7.96,5.06,5.31,7.59,13.47,7.59,24.48v42.47h-13.12v-41.14c0-7.47-1.5-13.07-4.5-16.81-3-3.74-7.5-5.6-13.49-5.6s-11.41,2.24-15.63,6.71c-4.23,4.47-6.34,10.79-6.34,18.95v37.9h-13.27ZM900.11,186.82v-73.15h13.27v12.09c2.36-4.33,5.7-7.72,10.03-10.18,4.32-2.46,9.24-3.69,14.75-3.69,8.65,0,15.53,2.65,20.65,7.96,5.11,5.31,7.67,13.47,7.67,24.48v42.47h-13.27v-41.14c0-7.47-1.55-13.07-4.64-16.81-3.1-3.74-7.69-5.6-13.79-5.6s-11.31,2.24-15.34,6.71c-4.03,4.47-6.05,10.79-6.05,18.95v37.9h-13.27ZM982.84,99.66v-16.22h16.07v16.22h-16.07ZM984.31,186.82v-73.15h13.27v73.15h-13.27ZM1047.87,188.59c-6.98,0-13.25-1.62-18.8-4.87-5.56-3.24-9.95-7.74-13.2-13.49-3.25-5.75-4.87-12.41-4.87-19.98s1.62-14.35,4.87-20.06c3.24-5.7,7.64-10.18,13.2-13.42,5.55-3.24,11.82-4.87,18.8-4.87,8.85,0,16.25,2.29,22.19,6.86,5.95,4.57,9.76,10.69,11.43,18.36h-13.71c-.98-4.33-3.32-7.72-7-10.18-3.69-2.46-7.99-3.69-12.9-3.69-4.03,0-7.84,1.03-11.43,3.1-3.59,2.06-6.47,5.09-8.63,9.07-2.16,3.98-3.25,8.92-3.25,14.82s1.08,10.72,3.25,14.75c2.16,4.03,5.04,7.08,8.63,9.14,3.59,2.06,7.4,3.1,11.43,3.1,4.92,0,9.22-1.2,12.9-3.61,3.69-2.41,6.02-5.83,7-10.25h13.71c-1.57,7.47-5.36,13.54-11.35,18.21-6,4.67-13.42,7-22.27,7ZM1117.18,188.59c-5.9,0-10.86-1.01-14.89-3.02-4.03-2.01-7.06-4.72-9.07-8.11-2.02-3.39-3.02-7-3.02-10.84,0-7.96,2.88-14.03,8.63-18.21,5.75-4.18,13.3-6.27,22.64-6.27,4.13,0,7.86.29,11.21.88,3.34.59,6.09,1.28,8.26,2.06v-3.24c0-6.29-1.65-11.04-4.94-14.23-3.29-3.19-7.69-4.79-13.2-4.79-4.52,0-8.43.94-11.72,2.8-3.29,1.87-5.33,5.01-6.12,9.44h-13.27c.59-5.21,2.38-9.54,5.38-12.98,3-3.44,6.76-6,11.28-7.67,4.52-1.67,9.34-2.51,14.45-2.51,10.42,0,18.26,2.73,23.52,8.18,5.26,5.46,7.89,12.71,7.89,21.75v21.97c0,3.54.22,6.15.66,7.82.44,1.67,1.2,2.71,2.29,3.1,1.08.39,2.56.59,4.42.59h1.03v11.5h-2.8c-4.82,0-8.75-.79-11.8-2.36-3.05-1.57-5.11-4.72-6.19-9.44-2.26,3.83-5.38,7.06-9.36,9.66-3.98,2.6-9.07,3.91-15.26,3.91ZM1119.25,177.82c4.33,0,8.04-1.08,11.13-3.24,3.1-2.16,5.53-5.01,7.3-8.55s2.75-7.27,2.95-11.21c-2.26-.69-5.01-1.3-8.26-1.84-3.24-.54-6.49-.81-9.73-.81-6.69,0-11.53,1.3-14.53,3.91-3,2.61-4.5,5.88-4.5,9.81,0,3.44,1.35,6.29,4.06,8.55,2.7,2.26,6.56,3.39,11.58,3.39ZM1175.88,186.82v-106.18h13.27v106.18h-13.27ZM1290.01,188.59c-7.18,0-13.67-1.43-19.47-4.28-5.8-2.85-10.42-7.25-13.86-13.2-3.44-5.95-5.16-13.49-5.16-22.64v-64.89h13.27v65.03c0,9.83,2.33,16.96,7,21.38,4.67,4.42,10.84,6.64,18.51,6.64s13.66-2.21,18.29-6.64c4.62-4.42,6.93-11.55,6.93-21.38v-65.03h13.27v64.89c0,9.14-1.75,16.69-5.24,22.64-3.49,5.95-8.16,10.35-14.01,13.2-5.85,2.85-12.36,4.28-19.54,4.28ZM1345.76,186.82v-73.15h13.27v12.09c2.36-4.33,5.7-7.72,10.03-10.18,4.33-2.46,9.24-3.69,14.75-3.69,8.65,0,15.53,2.65,20.65,7.96,5.11,5.31,7.67,13.47,7.67,24.48v42.47h-13.27v-41.14c0-7.47-1.55-13.07-4.64-16.81-3.1-3.74-7.69-5.6-13.79-5.6s-11.31,2.24-15.34,6.71c-4.03,4.47-6.05,10.79-6.05,18.95v37.9h-13.27ZM1428.49,99.66v-16.22h16.07v16.22h-16.07ZM1429.96,186.82v-73.15h13.27v73.15h-13.27ZM1485.11,186.82l-27.72-73.15h14.01l21.53,60.46,21.53-60.46h13.71l-27.58,73.15h-15.49ZM1569.02,188.59c-7.08,0-13.35-1.6-18.8-4.79-5.46-3.19-9.73-7.64-12.83-13.35-3.1-5.7-4.65-12.39-4.65-20.06s1.52-14.53,4.57-20.28c3.05-5.75,7.32-10.22,12.83-13.42,5.5-3.19,11.85-4.79,19.02-4.79s13.35,1.6,18.51,4.79c5.16,3.2,9.14,7.4,11.95,12.61,2.8,5.21,4.2,10.91,4.2,17.11v3.17c0,1.13-.05,2.34-.15,3.61h-61.05v-9.73h48.08c-.29-6.39-2.48-11.4-6.56-15.04-4.08-3.64-9.17-5.46-15.26-5.46-4.13,0-7.96.91-11.5,2.73-3.54,1.82-6.37,4.52-8.48,8.11-2.12,3.59-3.17,8.04-3.17,13.35v3.98c0,5.8,1.08,10.67,3.25,14.6,2.16,3.93,5.01,6.88,8.55,8.85,3.54,1.97,7.32,2.95,11.36,2.95,4.92,0,9.04-1.13,12.39-3.39,3.34-2.26,5.8-5.36,7.37-9.29h13.12c-1.28,4.42-3.39,8.46-6.34,12.09-2.95,3.64-6.66,6.49-11.13,8.55-4.48,2.06-9.56,3.1-15.26,3.1ZM1619.02,186.82v-73.15h13.27v11.5c1.67-3.83,3.93-6.81,6.78-8.92,2.85-2.11,6.34-3.17,10.47-3.17h10.91v12.39h-12.24c-3.15,0-5.92.88-8.33,2.65-2.41,1.77-4.28,4.6-5.6,8.48-1.33,3.88-1.99,9.02-1.99,15.41v34.8h-13.27ZM1698.95,188.59c-8.95,0-16.42-2.09-22.42-6.27-6-4.18-9.49-10.3-10.47-18.36h13.71c.79,4.23,2.9,7.57,6.34,10.03,3.44,2.46,7.86,3.69,13.27,3.69,5.11,0,9.04-1.08,11.8-3.24,2.75-2.16,4.13-4.92,4.13-8.26,0-2.46-.86-4.35-2.58-5.68-1.72-1.33-4.89-2.38-9.51-3.17-1.87-.39-3.86-.79-5.97-1.18-2.12-.39-4.11-.74-5.97-1.03-3.34-.69-6.66-1.82-9.95-3.39-3.29-1.57-6.02-3.78-8.18-6.64-2.16-2.85-3.24-6.54-3.24-11.06,0-6.29,2.41-11.55,7.23-15.78,4.82-4.23,11.4-6.34,19.76-6.34s14.75,1.84,20.06,5.53,8.31,9.42,9,17.18h-13.12c-.39-4.23-2.09-7.25-5.09-9.07-3-1.82-6.66-2.73-10.99-2.73s-7.69.94-10.4,2.8c-2.71,1.87-4.06,4.33-4.06,7.37,0,5.31,3.98,8.75,11.95,10.32,1.18.1,2.43.27,3.76.52,1.33.25,2.68.49,4.06.74,1.38.25,2.6.47,3.69.66,2.36.39,4.82.96,7.37,1.7,2.55.74,4.96,1.82,7.23,3.24,2.26,1.43,4.1,3.34,5.53,5.75,1.42,2.41,2.14,5.48,2.14,9.22,0,4.52-1.18,8.55-3.54,12.09-2.36,3.54-5.7,6.32-10.03,8.33-4.33,2.01-9.49,3.02-15.48,3.02ZM1742.3,99.66v-16.22h16.07v16.22h-16.07ZM1743.78,186.82v-73.15h13.27v73.15h-13.27ZM1799.22,186.82c-4.13,0-7.62-.52-10.47-1.55-2.85-1.03-4.99-2.97-6.42-5.83-1.43-2.85-2.14-6.88-2.14-12.09v-42.47h-12.68v-11.21h12.68v-17.84h13.27v17.84h20.65v11.21h-20.65v40.41c0,3.15.24,5.46.74,6.93.49,1.47,1.52,2.38,3.1,2.73,1.57.35,3.83.52,6.78.52h9v11.36h-13.86ZM1822.08,219.26v-10.91h14.9c1.38,0,2.53-.22,3.46-.66.93-.44,1.84-1.4,2.73-2.88.88-1.48,1.97-3.69,3.24-6.64l8.26-18.14-1.18,6.93-32-73.29h14.3l23.74,56.19,25.07-56.19h13.86l-39.67,88.04c-1.77,3.93-3.29,7.08-4.57,9.44-1.28,2.36-2.48,4.1-3.61,5.23-1.13,1.13-2.41,1.89-3.83,2.29-1.43.39-3.27.59-5.53.59h-19.17ZM617.27,340.59c-7.18,0-13.62-1.6-19.32-4.79-5.7-3.19-10.18-7.67-13.42-13.42-3.24-5.75-4.87-12.46-4.87-20.13s1.65-14.5,4.94-20.2c3.29-5.7,7.82-10.15,13.57-13.35,5.75-3.19,12.21-4.79,19.39-4.79s13.62,1.6,19.32,4.79c5.7,3.2,10.18,7.65,13.42,13.35,3.24,5.7,4.87,12.44,4.87,20.2s-1.65,14.38-4.94,20.13c-3.29,5.75-7.79,10.23-13.49,13.42-5.7,3.19-12.19,4.79-19.47,4.79ZM617.27,329.23c4.42,0,8.48-1.01,12.17-3.02,3.69-2.01,6.64-5.04,8.85-9.07,2.21-4.03,3.32-9,3.32-14.89s-1.11-10.99-3.32-14.97c-2.21-3.98-5.14-6.98-8.77-9-3.64-2.01-7.62-3.02-11.95-3.02s-8.33,1.03-12.02,3.1c-3.69,2.06-6.66,5.06-8.92,9-2.26,3.93-3.39,8.9-3.39,14.89s1.11,10.86,3.32,14.89c2.21,4.03,5.14,7.06,8.77,9.07,3.64,2.02,7.62,3.02,11.95,3.02ZM662.98,276.88v-11.21h39.82v11.21h-39.82ZM673.75,338.82v-85.98c0-5.41.69-9.56,2.06-12.46,1.38-2.9,3.61-4.92,6.71-6.05,3.1-1.13,7.2-1.7,12.31-1.7h7.96v11.35h-5.6c-4.13,0-6.86.62-8.18,1.84-1.33,1.23-1.99,3.91-1.99,8.04v84.94h-13.27ZM754.49,338.82v-99.54h20.77v81.35h51.25v18.19h-72.02ZM870.13,340.29c-7.95,0-14.87-1.58-20.77-4.73-5.9-3.15-10.45-7.62-13.64-13.4s-4.79-12.6-4.79-20.46,1.56-14.64,4.67-20.34c3.11-5.69,7.56-10.08,13.33-13.15s12.6-4.61,20.46-4.61,14.32,1.47,19.85,4.42c5.53,2.95,9.77,7.17,12.72,12.66,2.95,5.49,4.42,12.04,4.42,19.66v6.88h-55.92c.82,5.49,2.91,9.67,6.27,12.54,3.36,2.87,7.78,4.3,13.27,4.3,4.34,0,7.78-.74,10.32-2.21,2.54-1.48,4.34-3.73,5.41-6.76h20.4c-1.64,7.87-5.61,14.03-11.92,18.5-6.31,4.47-14.34,6.7-24.09,6.7ZM850.96,293.72h35.88c-.66-4.67-2.46-8.17-5.41-10.51s-6.92-3.5-11.92-3.5-9.07,1.19-12.23,3.56c-3.15,2.38-5.26,5.86-6.33,10.45ZM954.19,340.29c-8.03,0-15.01-1.58-20.95-4.73-5.94-3.15-10.55-7.62-13.83-13.4-3.28-5.78-4.92-12.55-4.92-20.34s1.62-14.54,4.85-20.28c3.24-5.73,7.87-10.16,13.89-13.27,6.02-3.11,13.05-4.67,21.08-4.67s14.97,1.56,20.83,4.67c5.86,3.11,10.4,7.54,13.64,13.27,3.24,5.74,4.85,12.54,4.85,20.4s-1.6,14.56-4.79,20.34c-3.2,5.78-7.76,10.22-13.7,13.33-5.94,3.11-12.93,4.67-20.95,4.67ZM954.19,322.6c6.14,0,10.85-1.86,14.13-5.59,3.28-3.73,4.91-8.79,4.91-15.18s-1.64-11.41-4.91-15.05c-3.28-3.64-7.99-5.47-14.13-5.47s-11,1.82-14.32,5.47c-3.32,3.65-4.98,8.66-4.98,15.05s1.66,11.45,4.98,15.18c3.32,3.73,8.09,5.59,14.32,5.59ZM1053.24,340.29c-6.23,0-11.53-1.19-15.92-3.56-4.38-2.38-7.89-5.69-10.51-9.95h-5.16v12.04h-20.65v-20.15h10.08v-83.08h20.4v39.57h.49c2.21-3.69,5.24-6.53,9.09-8.54,3.85-2.01,8.48-3.01,13.89-3.01,7.13,0,13.19,1.58,18.19,4.73,5,3.15,8.81,7.62,11.43,13.4,2.62,5.78,3.93,12.52,3.93,20.22s-1.35,14.32-4.05,20.09c-2.7,5.78-6.68,10.26-11.92,13.46-5.24,3.19-11.67,4.79-19.29,4.79ZM1049.43,322.6c6.22,0,10.89-1.84,14.01-5.53,3.11-3.69,4.67-8.73,4.67-15.12s-1.56-11.43-4.67-15.12c-3.12-3.69-7.79-5.53-14.01-5.53-5.49,0-9.85,1.54-13.09,4.61-3.24,3.07-4.85,7.31-4.85,12.72v6.64c0,5.41,1.62,9.65,4.85,12.72,3.24,3.07,7.6,4.61,13.09,4.61ZM1135.82,340.29c-7.95,0-14.87-1.58-20.77-4.73-5.9-3.15-10.45-7.62-13.64-13.4s-4.79-12.6-4.79-20.46,1.55-14.64,4.67-20.34c3.11-5.69,7.56-10.08,13.33-13.15,5.78-3.07,12.6-4.61,20.46-4.61s14.32,1.47,19.85,4.42c5.53,2.95,9.77,7.17,12.72,12.66,2.95,5.49,4.42,12.04,4.42,19.66v6.88h-55.92c.82,5.49,2.91,9.67,6.27,12.54,3.36,2.87,7.78,4.3,13.27,4.3,4.34,0,7.78-.74,10.32-2.21,2.54-1.48,4.34-3.73,5.41-6.76h20.4c-1.64,7.87-5.61,14.03-11.92,18.5-6.31,4.47-14.34,6.7-24.09,6.7ZM1116.65,293.72h35.88c-.66-4.67-2.46-8.17-5.41-10.51s-6.92-3.5-11.92-3.5-9.07,1.19-12.23,3.56c-3.16,2.38-5.27,5.86-6.33,10.45ZM1189.52,338.82v-53.58h-10.08v-20.15h20.65v12.04h5.16c2.87-4.26,6.47-7.56,10.81-9.89,4.34-2.33,9.75-3.5,16.22-3.5,10.24,0,18.17,2.81,23.78,8.42,5.61,5.61,8.42,13.13,8.42,22.55v44.12h-20.4v-40.31c0-5.41-1.46-9.52-4.36-12.35-2.91-2.83-7.15-4.24-12.72-4.24s-9.81,1.41-12.72,4.24c-2.91,2.83-4.36,6.94-4.36,12.35v40.31h-20.4Z" style="fill:#1c2629;"></path>
</svg>
