<?xml version="1.0" encoding="UTF-8"?>
<svg id="Layer_1" data-name="Layer 1" xmlns="http://www.w3.org/2000/svg" version="1.1" viewBox="0 0 401.9 82.6">
  <defs>
    <style>
      .cls-1 {
        fill: #fff;
        stroke-width: 0px;
      }
    </style>
  </defs>
  <path class="cls-1" d="M193.5,16.5l-6.8,49.2h4.7l1.6-13.3h5.7l1.6,13.3h4.9l-6.8-49.2h-4.9ZM193.5,48.1l2.4-19.8,2.4,19.8h-4.8ZM172.1,16.5c-5.2,0-8.1,2.9-8.1,7.6v34.4c0,4.8,2.9,7.6,8.1,7.6s8.1-2.9,8.1-7.6V24.1c0-4.8-2.9-7.6-8.1-7.6ZM175.3,58.5c0,1.7-1.2,3-3.2,3s-3.2-1.3-3.2-3V24.1c0-1.7,1.2-3,3.2-3s3.2,1.3,3.2,3v34.4ZM282.2,65.3h7v-1.7h-5v-7.4h4.2v-1.7h-4.2v-7.2h5v-1.7h-7v19.8ZM273.6,45.5h-4.2v19.8h4.2c2.4,0,4-1.3,4-3.6v-12.6c0-2.3-1.5-3.6-4-3.6ZM275.6,61.7c0,1.1-.7,1.9-1.9,1.9h-2.1v-16.3h2.1c1.2,0,1.9.8,1.9,1.9v12.6ZM236.2,82.6h1.7V0h-1.7v82.6ZM123.3,16.5c-5.2,0-8.1,2.9-8.1,7.6v6.8c0,11.8,11.3,12.8,11.3,21.4v6.1c0,1.7-1.2,3-3.2,3s-3.2-1.3-3.2-3v-10.2h-4.9v10.2c0,4.8,2.9,7.6,8.1,7.6s8.1-2.9,8.1-7.6v-6.1c0-11.5-11.3-13.1-11.3-21.4v-6.8c0-1.7,1.2-3,3.2-3s3.2,1.3,3.2,3v10.2h4.9v-10.2c0-4.8-2.9-7.6-8.1-7.6ZM86.3,16.9h-4.9v48.9h13.6v-4.4h-8.7V16.9ZM273.5,37.2c2.4,0,4.1-1.4,4.1-3.6v-16.3h-2v16.3c0,1.1-.8,1.9-2.1,1.9s-2-.7-2-1.9v-16.3h-2v16.3c0,2.3,1.6,3.6,4,3.6ZM152,41.2c2.4-.9,3.6-2.7,3.6-5.1v-11.9c0-4.8-2.7-7.3-7.9-7.3h-8v48.9h8.4c5.2,0,7.9-2.7,7.9-7.3v-12.1c0-2.6-1.3-4.3-3.9-5.2ZM144.6,21.2h3.1c2,0,3,1.3,3,3v11.9c0,1.7-1,2.9-3,2.9h-3.1v-17.8ZM151.1,58.4c0,1.7-1,2.9-3,2.9h-3.5v-18h3.5c2,0,3,1.2,3,2.9v12.1ZM39.1,62.3c0,10.8-6,19.5-13.5,19.5s-13.5-8.7-13.5-19.5V0H0v56.2c0,15.7,11.4,26.4,25.6,26.4s25.6-10.6,25.6-26.4V0h-12.1v62.3ZM101.9,65.8h4.9V16.9h-4.9v48.9ZM331.4,30.1l.5,6.9h2l-.6-7c-.2-1.6-.8-2.4-1.7-2.8,1.3-.5,2-1.6,2-3.2v-3.3c0-2.2-1.3-3.5-3.8-3.5h-4.3v19.8h2v-9h1.6c1.2,0,1.9.5,2.1,2ZM327.7,19h2.2c1.2,0,1.8.8,1.8,1.8v3.8c0,1-.6,1.8-1.8,1.8h-2.2v-7.4ZM350.4,37.1h2v-19.8h-2v19.8ZM357,45.4l-3.7,19.9h2l.9-5.4h3.6l.9,5.4h2.1l-3.7-19.9h-2ZM356.4,58.2l1.5-9,1.5,9h-3ZM345.7,45.4c-2.4,0-4.1,1.4-4.1,3.6v12.8c0,2.3,1.6,3.6,4.1,3.6s4-1.4,4-3.6v-12.8c0-2.3-1.6-3.6-4-3.6ZM347.7,61.9c0,1.1-.8,1.9-2,1.9s-2-.8-2-1.9v-12.8c0-1.1.8-1.9,2-1.9s2,.8,2,1.9v12.8ZM361.5,17.3h-4.2v19.8h4.2c2.4,0,4-1.3,4-3.6v-12.6c0-2.3-1.5-3.6-4-3.6ZM363.4,33.5c0,1.1-.7,1.9-1.9,1.9h-2.1v-16.3h2.1c1.2,0,1.9.8,1.9,1.9v12.6ZM401.9,19v-1.7h-7v19.8h7v-1.7h-5v-7.4h4.2v-1.7h-4.2v-7.2h5ZM346,33.6v-2c0-5.1-6-5.1-6-8.8v-2.2c0-1,.7-1.7,2-1.7s2,.8,2,1.9v3.6h2v-3.6c0-2.3-1.6-3.6-4-3.6s-4,1.3-4,3.5v2.2c0,5.1,6,5.1,6,8.9v2c0,1-.8,1.8-2,1.8s-2.1-.7-2.1-1.9v-3.6h-2v3.6c0,2.3,1.6,3.6,4,3.6s4.1-1.3,4.1-3.6ZM386.3,17.3h-4.2v19.8h4.2c2.4,0,4-1.3,4-3.6v-12.6c0-2.3-1.5-3.6-4-3.6ZM388.2,33.5c0,1.1-.7,1.9-1.9,1.9h-2.1v-16.3h2.1c1.2,0,1.9.8,1.9,1.9v12.6ZM372.6,17.1l-3.7,19.9h2l.9-5.4h3.6l.9,5.4h2.1l-3.7-19.9h-2ZM372.1,29.9l1.5-9,1.5,9h-3ZM318.8,51.1v-2.2c0-1,.7-1.7,2-1.7s2,.8,2,1.9v3.6h2v-3.6c0-2.3-1.6-3.6-4-3.6s-4,1.3-4,3.5v2.2c0,5.1,6,5.1,6,8.9v2c0,1-.8,1.8-2,1.8s-2.1-.7-2.1-1.9v-3.6h-2v3.6c0,2.3,1.6,3.6,4,3.6s4.1-1.3,4.1-3.6v-2c0-5.1-6-5.1-6-8.8ZM301.5,45.5h-2v19.8h7v-1.7h-4.9v-18.1ZM308.8,17.3l-2.7,15.8-2.7-15.8h-2.1l3.7,19.9h2l3.7-19.9h-2ZM295.5,37.1h2v-19.8h-2v19.8ZM321.5,35.3h-5v-7.4h4.2v-1.7h-4.2v-7.2h5v-1.7h-7v19.8h7v-1.7ZM288.9,26.4c0,2,0,3.5.1,5.5l-4.4-14.6h-2.2v19.8h1.9v-9.2c0-2,0-3.6-.1-5.5l4.4,14.7h2.1v-19.8h-1.8v9.2ZM310.2,65.3h2v-19.8h-2v19.8ZM335.3,55.3c1.1-.4,1.8-1.3,1.8-2.6v-3.7c0-2.3-1.5-3.4-3.8-3.4h-4v19.8h4.3c2.4,0,3.9-1.2,3.9-3.5v-3.8c0-1.4-.8-2.4-2.1-2.8ZM331.2,47.3h2c1.1,0,1.8.7,1.8,1.8v3.7c0,1.1-.7,1.8-1.8,1.8h-2v-7.2ZM335.4,61.8c0,1.2-.7,1.8-1.9,1.8h-2.3v-7.4h2.3c1.2,0,1.9.7,1.9,1.8v3.8Z"/>
</svg>